<?xml version="1.0"?>
<svg xmlns="http://www.w3.org/2000/svg" xmlns:lc="https://librecad.org" xmlns:xlink="http://www.w3.org/1999/xlink" width="801.97287484mm" height="730.87889321mm" viewBox="0 0 801.97287484 730.87889321">
    <g lc:layername="0" lc:is_locked="false" lc:is_construction="false" fill="none" stroke="black" stroke-width="1">
        <path d="M9.62811054,0 C57.50934786,-1.78188537 75.29412377,-14.1663762 93.86600894,-11.73863223 C112.43789411,-9.31088825 131.79688854,7.92909054 143.05462467,22.22987352 C154.31236079,36.53065651 157.4688386,47.89224368 170,74.76540602 "/>
        <line x1="657.48850074" y1="587.69993445" x2="801.03595271" y2="279.86143028"/>
        <line x1="796.19905746" y1="266.57216979" x2="658.06839403" y2="202.16078361"/>
        <line x1="200.61288083" y1="140.41494082" x2="170" y2="74.76540602"/>
        <line x1="0" y1="530.17714424" x2="0" y2="9.99308252"/>
        <line x1="0" y1="530.17714424" x2="657.48850074" y2="587.69993445"/>
        <path d="M658.06839403,202.16078361 A10,10 0 0,0 646.34013058,204.6118434 "/>
        <path d="M801.03595271,279.86143028 A10,10 0 0,0 796.19905746,266.57216979 "/>
        <path d="M9.62811054,0 A10,10 0 0,0 0,9.99308252 "/>
        <path d="M200.61288083,140.41494082 A269.07514598,269.07514598 0 0,0 646.34013058,204.6118434 "/>
    </g>
</svg>
